<svg width="33" height="33" viewBox="0 0 33 33" fill="none" xmlns="http://www.w3.org/2000/svg">
<rect width="33" height="33" fill="#F2F2F2"/>
<g id="&#208;&#154;&#209;&#131;&#208;&#177;&#208;&#176;" clip-path="url(#clip0_0_1)">
<rect width="1440" height="4684" transform="translate(-254 -1713)" fill="white"/>
<g id="&#208;&#154;&#208;&#190;&#208;&#189;&#209;&#130;&#208;&#181;&#208;&#189;&#209;&#130;" clip-path="url(#clip1_0_1)">
<g id="&#208;&#152;&#209;&#129;&#209;&#130;&#208;&#190;&#209;&#128;&#208;&#184;&#209;&#135;&#208;&#181;&#209;&#129;&#208;&#186;&#208;&#190;&#208;&#181; &#208;&#189;&#208;&#176;&#209;&#129;&#208;&#187;&#208;&#181;&#208;&#180;&#208;&#184;&#208;&#181;" clip-path="url(#clip2_0_1)">
<g id="Card-Heritage" clip-path="url(#clip3_0_1)">
<g id="bg" filter="url(#filter0_d_0_1)">
<rect x="-19" y="-19" width="470" height="289" fill="white"/>
</g>
<g id="Gold-Corners" clip-path="url(#clip4_0_1)">
<path id="Path 3 Copy" d="M33 2V0L0 0L0 33H2V2H33Z" fill="#ECB84C"/>
</g>
<path id="Historical Heritage" d="M39.4453 35H32.5664V34.168C32.7539 34.1523 33.0273 34.1289 33.3867 34.0977C33.7539 34.0664 34.0039 34.0195 34.1367 33.957C34.3711 33.8633 34.543 33.7227 34.6523 33.5352C34.7617 33.3398 34.8164 33.0898 34.8164 32.7852V22.4141L26.7773 32.4453V32.7148C26.7773 32.9883 26.8203 33.2109 26.9062 33.3828C27 33.5469 27.1797 33.6992 27.4453 33.8398C27.5781 33.9102 27.8242 33.9805 28.1836 34.0508C28.543 34.1211 28.8242 34.1602 29.0273 34.168V35H22.1484V34.168C22.3359 34.1523 22.6055 34.1289 22.957 34.0977C23.3164 34.0664 23.5625 34.0195 23.6953 33.957C23.9297 33.8633 24.1016 33.7227 24.2109 33.5352C24.3203 33.3398 24.375 33.0898 24.375 32.7852V20.7852C24.375 20.5352 24.3242 20.3086 24.2227 20.1055C24.1211 19.8945 23.9453 19.7305 23.6953 19.6133C23.4844 19.5117 23.2266 19.4219 22.9219 19.3438C22.625 19.2656 22.3672 19.2188 22.1484 19.2031V18.3711H29.0273V19.2031C28.8086 19.2109 28.5352 19.2461 28.207 19.3086C27.8867 19.3711 27.6484 19.4297 27.4922 19.4844C27.2266 19.5781 27.0469 19.7344 26.9531 19.9531C26.8672 20.1719 26.8242 20.4102 26.8242 20.668V30.7812L34.8633 20.7617C34.8633 20.4805 34.8125 20.25 34.7109 20.0703C34.6094 19.8828 34.4336 19.7305 34.1836 19.6133C33.9883 19.5195 33.7188 19.4336 33.375 19.3555C33.0312 19.2695 32.7617 19.2188 32.5664 19.2031V18.3711H39.4453V19.2031C39.2266 19.2109 38.957 19.2461 38.6367 19.3086C38.3242 19.3711 38.0898 19.4297 37.9336 19.4844C37.668 19.5781 37.4883 19.7344 37.3945 19.9531C37.3086 20.1719 37.2656 20.4102 37.2656 20.668V32.6562C37.2656 32.9297 37.3086 33.1602 37.3945 33.3477C37.4883 33.5352 37.668 33.6992 37.9336 33.8398C38.0664 33.9102 38.3008 33.9805 38.6367 34.0508C38.9805 34.1211 39.25 34.1602 39.4453 34.168V35ZM46.8281 35.3047C45.1562 35.3047 43.8477 34.75 42.9023 33.6406C41.957 32.5312 41.4844 31.043 41.4844 29.1758C41.4844 28.3633 41.6094 27.6055 41.8594 26.9023C42.1172 26.1914 42.4883 25.5469 42.9727 24.9688C43.4336 24.4141 44.0117 23.9688 44.707 23.6328C45.4023 23.2891 46.1602 23.1172 46.9805 23.1172C48.1133 23.1172 49.0352 23.3906 49.7461 23.9375C50.457 24.4766 50.8125 25.2148 50.8125 26.1523C50.8125 26.543 50.7188 26.8906 50.5312 27.1953C50.3438 27.4922 50.0352 27.6406 49.6055 27.6406C49.1445 27.6406 48.7852 27.5234 48.5273 27.2891C48.2773 27.0547 48.1523 26.793 48.1523 26.5039C48.1523 26.1523 48.1992 25.793 48.293 25.4258C48.3867 25.0508 48.4414 24.7773 48.457 24.6055C48.3164 24.3633 48.1055 24.2031 47.8242 24.125C47.5508 24.0391 47.2539 23.9961 46.9336 23.9961C46.5586 23.9961 46.1992 24.0781 45.8555 24.2422C45.5195 24.3984 45.1914 24.6914 44.8711 25.1211C44.582 25.5117 44.3477 26.0391 44.168 26.7031C43.9883 27.3672 43.8984 28.1602 43.8984 29.082C43.8984 30.5352 44.2188 31.7227 44.8594 32.6445C45.5078 33.5586 46.3555 34.0156 47.4023 34.0156C48.1602 34.0156 48.793 33.832 49.3008 33.4648C49.8164 33.0977 50.293 32.5469 50.7305 31.8125L51.4805 32.3047C50.9648 33.2266 50.2852 33.957 49.4414 34.4961C48.5977 35.0352 47.7266 35.3047 46.8281 35.3047ZM62.5781 27.1484H61.8633C61.793 26.9297 61.6875 26.6719 61.5469 26.375C61.4141 26.0781 61.2656 25.7969 61.1016 25.5312C60.9297 25.2422 60.7344 24.9883 60.5156 24.7695C60.3047 24.543 60.082 24.4141 59.8477 24.3828C59.6055 24.3594 59.3359 24.3438 59.0391 24.3359C58.7422 24.3203 58.4883 24.3125 58.2773 24.3125V32.9141C58.2773 33.1797 58.332 33.3984 58.4414 33.5703C58.5508 33.7422 58.7148 33.875 58.9336 33.9688C59.1055 34.0469 59.3008 34.1055 59.5195 34.1445C59.7383 34.1836 59.9531 34.2109 60.1641 34.2266V35H54.2812V34.2266C54.4609 34.2109 54.6641 34.1953 54.8906 34.1797C55.125 34.1641 55.3125 34.1328 55.4531 34.0859C55.6719 34.0156 55.832 33.8945 55.9336 33.7227C56.043 33.543 56.0977 33.3125 56.0977 33.0312V24.3125C55.8477 24.3203 55.5664 24.332 55.2539 24.3477C54.9414 24.3555 54.6953 24.3672 54.5156 24.3828C54.3125 24.3984 54.0938 24.5273 53.8594 24.7695C53.6328 25.0117 53.4336 25.2656 53.2617 25.5312C53.0977 25.7969 52.9453 26.0938 52.8047 26.4219C52.6641 26.7422 52.5664 26.9844 52.5117 27.1484H51.7969V23.4453H62.5781V27.1484ZM74.9414 29.1055C74.9414 29.918 74.8125 30.7188 74.5547 31.5078C74.2969 32.2891 73.9297 32.9531 73.4531 33.5C72.9141 34.125 72.2891 34.5898 71.5781 34.8945C70.8672 35.1992 70.0703 35.3516 69.1875 35.3516C68.4531 35.3516 67.7539 35.2148 67.0898 34.9414C66.4258 34.6602 65.8359 34.2539 65.3203 33.7227C64.8125 33.1992 64.4062 32.5625 64.1016 31.8125C63.8047 31.0547 63.6562 30.207 63.6562 29.2695C63.6562 27.4648 64.1797 25.9883 65.2266 24.8398C66.2812 23.6914 67.6602 23.1172 69.3633 23.1172C70.9805 23.1172 72.3125 23.6641 73.3594 24.7578C74.4141 25.8438 74.9414 27.293 74.9414 29.1055ZM72.5156 29.1289C72.5156 28.543 72.457 27.9258 72.3398 27.2773C72.2227 26.6211 72.0469 26.0664 71.8125 25.6133C71.5625 25.1289 71.2344 24.7422 70.8281 24.4531C70.4219 24.1562 69.9258 24.0078 69.3398 24.0078C68.7383 24.0078 68.2227 24.1562 67.793 24.4531C67.3711 24.75 67.0273 25.1562 66.7617 25.6719C66.5117 26.1484 66.3359 26.6914 66.2344 27.3008C66.1328 27.9102 66.082 28.5 66.082 29.0703C66.082 29.8203 66.1406 30.5156 66.2578 31.1562C66.3828 31.7891 66.5781 32.3555 66.8438 32.8555C67.1094 33.3555 67.4414 33.75 67.8398 34.0391C68.2461 34.3203 68.7461 34.4609 69.3398 34.4609C70.3164 34.4609 71.0898 33.9883 71.6602 33.043C72.2305 32.0977 72.5156 30.793 72.5156 29.1289ZM87.1758 24.8164C87.6367 25.3633 87.9922 26 88.2422 26.7266C88.5 27.4453 88.6289 28.2695 88.6289 29.1992C88.6289 30.1133 88.4766 30.9492 88.1719 31.707C87.8672 32.457 87.4648 33.0977 86.9648 33.6289C86.4414 34.168 85.8594 34.582 85.2188 34.8711C84.5781 35.1602 83.8984 35.3047 83.1797 35.3047C82.4844 35.3047 81.9141 35.2266 81.4688 35.0703C81.0234 34.9141 80.6602 34.7305 80.3789 34.5195H80.2852V37.9883C80.2852 38.2695 80.3398 38.5039 80.4492 38.6914C80.5586 38.8789 80.7266 39.0156 80.9531 39.1016C81.1406 39.1719 81.4062 39.2383 81.75 39.3008C82.1016 39.3711 82.3906 39.4102 82.6172 39.418V40.2031H76.1602V39.418C76.4023 39.4023 76.6367 39.3828 76.8633 39.3594C77.0898 39.3359 77.293 39.2969 77.4727 39.2422C77.707 39.1641 77.8711 39.0273 77.9648 38.832C78.0586 38.6367 78.1055 38.4062 78.1055 38.1406V25.8477C78.1055 25.6133 78.0469 25.3867 77.9297 25.168C77.8125 24.9492 77.6602 24.7734 77.4727 24.6406C77.332 24.5469 77.1367 24.4766 76.8867 24.4297C76.6367 24.375 76.3945 24.3398 76.1602 24.3242V23.5625L80.0977 23.3047L80.2617 23.4453V24.7461L80.3555 24.7695C80.7617 24.3008 81.2656 23.9102 81.8672 23.5977C82.4688 23.2852 83.0664 23.1289 83.6602 23.1289C84.3789 23.1289 85.0352 23.2812 85.6289 23.5859C86.2305 23.8906 86.7461 24.3008 87.1758 24.8164ZM85.2656 33.125C85.5781 32.6406 85.8086 32.0781 85.957 31.4375C86.1055 30.7969 86.1797 30.082 86.1797 29.293C86.1797 28.7148 86.1172 28.125 85.9922 27.5234C85.8672 26.9219 85.6719 26.3984 85.4062 25.9531C85.1406 25.5 84.793 25.1328 84.3633 24.8516C83.9336 24.5703 83.418 24.4297 82.8164 24.4297C82.2383 24.4297 81.7461 24.5586 81.3398 24.8164C80.9336 25.0664 80.582 25.3672 80.2852 25.7188V32.5508C80.3555 32.7617 80.4688 32.9805 80.625 33.207C80.7891 33.4336 80.9688 33.6289 81.1641 33.793C81.4062 33.9883 81.668 34.1484 81.9492 34.2734C82.2305 34.3906 82.5742 34.4492 82.9805 34.4492C83.418 34.4492 83.8398 34.3359 84.2461 34.1094C84.6523 33.875 84.9922 33.5469 85.2656 33.125ZM103.359 35H97.7461V34.2266C97.9258 34.2109 98.1094 34.1953 98.2969 34.1797C98.4922 34.1641 98.6602 34.1328 98.8008 34.0859C99.0195 34.0156 99.1875 33.8945 99.3047 33.7227C99.4219 33.543 99.4805 33.3125 99.4805 33.0312V26.9609L94.1602 32.7148V32.9141C94.1602 33.1797 94.2148 33.3984 94.3242 33.5703C94.4336 33.7422 94.5977 33.875 94.8164 33.9688C94.9883 34.0469 95.168 34.1055 95.3555 34.1445C95.5508 34.1836 95.7539 34.2109 95.9648 34.2266V35H90.3516V34.2266C90.5312 34.2109 90.7148 34.1953 90.9023 34.1797C91.0977 34.1641 91.2656 34.1328 91.4062 34.0859C91.625 34.0156 91.7852 33.8945 91.8867 33.7227C91.9961 33.543 92.0508 33.3125 92.0508 33.0312V25.5312C92.0508 25.2734 91.9961 25.0586 91.8867 24.8867C91.7773 24.707 91.6133 24.5703 91.3945 24.4766C91.1914 24.3828 90.9922 24.3203 90.7969 24.2891C90.6094 24.2578 90.4336 24.2344 90.2695 24.2188V23.4453H95.8828V24.2188C95.6562 24.2344 95.457 24.2539 95.2852 24.2773C95.1211 24.3008 94.9688 24.3281 94.8281 24.3594C94.6094 24.4219 94.4453 24.5469 94.3359 24.7344C94.2344 24.9141 94.1836 25.1406 94.1836 25.4141V31.3906L99.5039 25.625C99.5039 25.2812 99.4492 25.0273 99.3398 24.8633C99.2305 24.6992 99.0664 24.5703 98.8477 24.4766C98.6445 24.3828 98.4414 24.3203 98.2383 24.2891C98.043 24.2578 97.8633 24.2344 97.6992 24.2188V23.4453H103.312V24.2188C103.086 24.2344 102.887 24.2539 102.715 24.2773C102.551 24.3008 102.398 24.3281 102.258 24.3594C102.039 24.4219 101.875 24.5469 101.766 24.7344C101.664 24.9141 101.613 25.1406 101.613 25.4141V32.9141C101.613 33.1875 101.66 33.4102 101.754 33.582C101.848 33.7461 102.008 33.875 102.234 33.9688C102.398 34.0469 102.574 34.1055 102.762 34.1445C102.957 34.1836 103.156 34.2109 103.359 34.2266V35ZM117.094 35H111.434V34.2266C111.613 34.2109 111.797 34.1953 111.984 34.1797C112.18 34.1641 112.348 34.1328 112.488 34.0859C112.707 34.0156 112.875 33.8945 112.992 33.7227C113.109 33.543 113.168 33.3125 113.168 33.0312V29.9609C112.535 30.2266 111.977 30.4453 111.492 30.6172C111.008 30.7812 110.426 30.8633 109.746 30.8633C108.52 30.8633 107.617 30.6211 107.039 30.1367C106.469 29.6523 106.184 28.8828 106.184 27.8281V25.5312C106.184 25.2656 106.129 25.0469 106.02 24.875C105.91 24.7031 105.746 24.5703 105.527 24.4766C105.324 24.3828 105.125 24.3203 104.93 24.2891C104.742 24.2578 104.566 24.2344 104.402 24.2188V23.4453H110.051V24.2188C109.824 24.2344 109.625 24.2539 109.453 24.2773C109.289 24.3008 109.137 24.3281 108.996 24.3594C108.777 24.4219 108.617 24.5469 108.516 24.7344C108.414 24.9141 108.363 25.1406 108.363 25.4141V27.2422C108.363 28.0781 108.531 28.6797 108.867 29.0469C109.211 29.4141 109.781 29.5977 110.578 29.5977C110.93 29.5977 111.328 29.5625 111.773 29.4922C112.227 29.4219 112.691 29.3047 113.168 29.1406V25.5312C113.168 25.2734 113.113 25.0586 113.004 24.8867C112.895 24.707 112.73 24.5703 112.512 24.4766C112.309 24.3828 112.109 24.3203 111.914 24.2891C111.727 24.2578 111.551 24.2344 111.387 24.2188V23.4453H117.047V24.2188C116.82 24.2344 116.621 24.2539 116.449 24.2773C116.285 24.3008 116.133 24.3281 115.992 24.3594C115.773 24.4219 115.609 24.5469 115.5 24.7344C115.398 24.9141 115.348 25.1406 115.348 25.4141V32.9141C115.348 33.1875 115.395 33.4102 115.488 33.582C115.582 33.7461 115.742 33.875 115.969 33.9688C116.133 34.0469 116.309 34.1055 116.496 34.1445C116.691 34.1836 116.891 34.2109 117.094 34.2266V35ZM129.023 32.2812C128.539 33.2031 127.891 33.9375 127.078 34.4844C126.266 35.0312 125.332 35.3047 124.277 35.3047C123.348 35.3047 122.531 35.1406 121.828 34.8125C121.133 34.4844 120.559 34.0391 120.105 33.4766C119.652 32.9141 119.312 32.2578 119.086 31.5078C118.867 30.7578 118.758 29.9648 118.758 29.1289C118.758 28.3789 118.875 27.6445 119.109 26.9258C119.352 26.1992 119.703 25.5469 120.164 24.9688C120.609 24.4141 121.16 23.9688 121.816 23.6328C122.48 23.2891 123.223 23.1172 124.043 23.1172C124.887 23.1172 125.609 23.25 126.211 23.5156C126.812 23.7812 127.301 24.1445 127.676 24.6055C128.035 25.043 128.301 25.5586 128.473 26.1523C128.652 26.7461 128.742 27.3906 128.742 28.0859V28.8594H121.09C121.09 29.6172 121.16 30.3047 121.301 30.9219C121.449 31.5391 121.68 32.082 121.992 32.5508C122.297 33.0039 122.695 33.3633 123.188 33.6289C123.68 33.8867 124.266 34.0156 124.945 34.0156C125.641 34.0156 126.238 33.8555 126.738 33.5352C127.246 33.207 127.734 32.6211 128.203 31.7773L129.023 32.2812ZM126.434 27.875C126.434 27.4375 126.395 26.9688 126.316 26.4688C126.246 25.9688 126.129 25.5508 125.965 25.2148C125.785 24.8555 125.539 24.5625 125.227 24.3359C124.914 24.1094 124.512 23.9961 124.02 23.9961C123.199 23.9961 122.516 24.3398 121.969 25.0273C121.43 25.707 121.137 26.6562 121.09 27.875H126.434ZM135.703 35.3047C134.031 35.3047 132.723 34.75 131.777 33.6406C130.832 32.5312 130.359 31.043 130.359 29.1758C130.359 28.3633 130.484 27.6055 130.734 26.9023C130.992 26.1914 131.363 25.5469 131.848 24.9688C132.309 24.4141 132.887 23.9688 133.582 23.6328C134.277 23.2891 135.035 23.1172 135.855 23.1172C136.988 23.1172 137.91 23.3906 138.621 23.9375C139.332 24.4766 139.688 25.2148 139.688 26.1523C139.688 26.543 139.594 26.8906 139.406 27.1953C139.219 27.4922 138.91 27.6406 138.48 27.6406C138.02 27.6406 137.66 27.5234 137.402 27.2891C137.152 27.0547 137.027 26.793 137.027 26.5039C137.027 26.1523 137.074 25.793 137.168 25.4258C137.262 25.0508 137.316 24.7773 137.332 24.6055C137.191 24.3633 136.98 24.2031 136.699 24.125C136.426 24.0391 136.129 23.9961 135.809 23.9961C135.434 23.9961 135.074 24.0781 134.73 24.2422C134.395 24.3984 134.066 24.6914 133.746 25.1211C133.457 25.5117 133.223 26.0391 133.043 26.7031C132.863 27.3672 132.773 28.1602 132.773 29.082C132.773 30.5352 133.094 31.7227 133.734 32.6445C134.383 33.5586 135.23 34.0156 136.277 34.0156C137.035 34.0156 137.668 33.832 138.176 33.4648C138.691 33.0977 139.168 32.5469 139.605 31.8125L140.355 32.3047C139.84 33.2266 139.16 33.957 138.316 34.4961C137.473 35.0352 136.602 35.3047 135.703 35.3047ZM153.516 35H149.543C149.348 34.3594 149.172 33.8125 149.016 33.3594C148.859 32.8984 148.629 32.3672 148.324 31.7656C147.957 31.0312 147.551 30.5 147.105 30.1719C146.668 29.8438 146.102 29.6797 145.406 29.6797H145.137V32.9141C145.137 33.1797 145.191 33.3984 145.301 33.5703C145.41 33.7422 145.574 33.875 145.793 33.9688C145.957 34.0469 146.133 34.1055 146.32 34.1445C146.516 34.1836 146.715 34.2109 146.918 34.2266V35H141.281V34.2266C141.461 34.2109 141.645 34.1953 141.832 34.1797C142.027 34.1641 142.195 34.1328 142.336 34.0859C142.555 34.0156 142.715 33.8945 142.816 33.7227C142.926 33.543 142.98 33.3125 142.98 33.0312V25.5312C142.98 25.2734 142.926 25.0586 142.816 24.8867C142.707 24.707 142.543 24.5703 142.324 24.4766C142.121 24.3828 141.922 24.3203 141.727 24.2891C141.539 24.2578 141.363 24.2344 141.199 24.2188V23.4453H146.836V24.2188C146.609 24.2344 146.41 24.2539 146.238 24.2773C146.074 24.3008 145.922 24.3281 145.781 24.3594C145.562 24.4219 145.398 24.5469 145.289 24.7344C145.188 24.9141 145.137 25.1406 145.137 25.4141V28.8008H145.875C146.133 28.8008 146.391 28.75 146.648 28.6484C146.906 28.5469 147.121 28.4062 147.293 28.2266C147.512 27.9922 147.707 27.6836 147.879 27.3008C148.051 26.918 148.195 26.5586 148.312 26.2227C148.438 25.8711 148.578 25.5078 148.734 25.1328C148.898 24.7578 149.062 24.4688 149.227 24.2656C149.516 23.9141 149.824 23.668 150.152 23.5273C150.488 23.3789 150.855 23.3047 151.254 23.3047C151.855 23.3047 152.297 23.4336 152.578 23.6914C152.859 23.9492 153 24.2734 153 24.6641C153 25 152.887 25.2891 152.66 25.5312C152.441 25.7734 152.148 25.8945 151.781 25.8945C151.43 25.8945 151.152 25.8047 150.949 25.625C150.754 25.4453 150.48 25.1445 150.129 24.7227C149.98 24.8555 149.836 25.1367 149.695 25.5664C149.562 25.9883 149.434 26.3594 149.309 26.6797C149.074 27.3125 148.832 27.8008 148.582 28.1445C148.34 28.4883 148.055 28.7656 147.727 28.9766V29.1289C148.438 29.2695 149 29.5273 149.414 29.9023C149.836 30.2773 150.191 30.75 150.48 31.3203C150.621 31.5938 150.777 31.9297 150.949 32.3281C151.129 32.7188 151.246 32.9766 151.301 33.1016C151.457 33.4531 151.645 33.6953 151.863 33.8281C152.082 33.9531 152.285 34.0312 152.473 34.0625C152.652 34.1016 152.832 34.1367 153.012 34.168C153.199 34.1914 153.367 34.2109 153.516 34.2266V35ZM165.762 29.1055C165.762 29.918 165.633 30.7188 165.375 31.5078C165.117 32.2891 164.75 32.9531 164.273 33.5C163.734 34.125 163.109 34.5898 162.398 34.8945C161.688 35.1992 160.891 35.3516 160.008 35.3516C159.273 35.3516 158.574 35.2148 157.91 34.9414C157.246 34.6602 156.656 34.2539 156.141 33.7227C155.633 33.1992 155.227 32.5625 154.922 31.8125C154.625 31.0547 154.477 30.207 154.477 29.2695C154.477 27.4648 155 25.9883 156.047 24.8398C157.102 23.6914 158.48 23.1172 160.184 23.1172C161.801 23.1172 163.133 23.6641 164.18 24.7578C165.234 25.8438 165.762 27.293 165.762 29.1055ZM163.336 29.1289C163.336 28.543 163.277 27.9258 163.16 27.2773C163.043 26.6211 162.867 26.0664 162.633 25.6133C162.383 25.1289 162.055 24.7422 161.648 24.4531C161.242 24.1562 160.746 24.0078 160.16 24.0078C159.559 24.0078 159.043 24.1562 158.613 24.4531C158.191 24.75 157.848 25.1562 157.582 25.6719C157.332 26.1484 157.156 26.6914 157.055 27.3008C156.953 27.9102 156.902 28.5 156.902 29.0703C156.902 29.8203 156.961 30.5156 157.078 31.1562C157.203 31.7891 157.398 32.3555 157.664 32.8555C157.93 33.3555 158.262 33.75 158.66 34.0391C159.066 34.3203 159.566 34.4609 160.16 34.4609C161.137 34.4609 161.91 33.9883 162.48 33.043C163.051 32.0977 163.336 30.793 163.336 29.1289ZM177.703 32.2812C177.219 33.2031 176.57 33.9375 175.758 34.4844C174.945 35.0312 174.012 35.3047 172.957 35.3047C172.027 35.3047 171.211 35.1406 170.508 34.8125C169.812 34.4844 169.238 34.0391 168.785 33.4766C168.332 32.9141 167.992 32.2578 167.766 31.5078C167.547 30.7578 167.438 29.9648 167.438 29.1289C167.438 28.3789 167.555 27.6445 167.789 26.9258C168.031 26.1992 168.383 25.5469 168.844 24.9688C169.289 24.4141 169.84 23.9688 170.496 23.6328C171.16 23.2891 171.902 23.1172 172.723 23.1172C173.566 23.1172 174.289 23.25 174.891 23.5156C175.492 23.7812 175.98 24.1445 176.355 24.6055C176.715 25.043 176.98 25.5586 177.152 26.1523C177.332 26.7461 177.422 27.3906 177.422 28.0859V28.8594H169.77C169.77 29.6172 169.84 30.3047 169.98 30.9219C170.129 31.5391 170.359 32.082 170.672 32.5508C170.977 33.0039 171.375 33.3633 171.867 33.6289C172.359 33.8867 172.945 34.0156 173.625 34.0156C174.32 34.0156 174.918 33.8555 175.418 33.5352C175.926 33.207 176.414 32.6211 176.883 31.7773L177.703 32.2812ZM175.113 27.875C175.113 27.4375 175.074 26.9688 174.996 26.4688C174.926 25.9688 174.809 25.5508 174.645 25.2148C174.465 24.8555 174.219 24.5625 173.906 24.3359C173.594 24.1094 173.191 23.9961 172.699 23.9961C171.879 23.9961 171.195 24.3398 170.648 25.0273C170.109 25.707 169.816 26.6562 169.77 27.875H175.113ZM197.777 35H192.129V34.2266C192.309 34.2109 192.492 34.1953 192.68 34.1797C192.875 34.1641 193.043 34.1328 193.184 34.0859C193.402 34.0156 193.57 33.8945 193.688 33.7227C193.805 33.543 193.863 33.3125 193.863 33.0312V29.3516H188.719V32.9141C188.719 33.1797 188.773 33.3984 188.883 33.5703C188.992 33.7422 189.156 33.875 189.375 33.9688C189.539 34.0469 189.715 34.1055 189.902 34.1445C190.098 34.1836 190.297 34.2109 190.5 34.2266V35H184.852V34.2266C185.031 34.2109 185.215 34.1953 185.402 34.1797C185.598 34.1641 185.766 34.1328 185.906 34.0859C186.125 34.0156 186.285 33.8945 186.387 33.7227C186.496 33.543 186.551 33.3125 186.551 33.0312V25.5312C186.551 25.2734 186.496 25.0586 186.387 24.8867C186.277 24.707 186.113 24.5703 185.895 24.4766C185.691 24.3828 185.492 24.3203 185.297 24.2891C185.109 24.2578 184.934 24.2344 184.77 24.2188V23.4453H190.418V24.2188C190.191 24.2344 189.992 24.2539 189.82 24.2773C189.656 24.3008 189.504 24.3281 189.363 24.3594C189.145 24.4219 188.98 24.5469 188.871 24.7344C188.77 24.9141 188.719 25.1406 188.719 25.4141V28.3906H193.863V25.5312C193.863 25.2734 193.809 25.0586 193.699 24.8867C193.59 24.707 193.426 24.5703 193.207 24.4766C193.004 24.3828 192.805 24.3203 192.609 24.2891C192.422 24.2578 192.246 24.2344 192.082 24.2188V23.4453H197.73V24.2188C197.504 24.2344 197.305 24.2539 197.133 24.2773C196.969 24.3008 196.816 24.3281 196.676 24.3594C196.457 24.4219 196.293 24.5469 196.184 24.7344C196.082 24.9141 196.031 25.1406 196.031 25.4141V32.9141C196.031 33.1875 196.078 33.4102 196.172 33.582C196.266 33.7461 196.426 33.875 196.652 33.9688C196.816 34.0469 196.992 34.1055 197.18 34.1445C197.375 34.1836 197.574 34.2109 197.777 34.2266V35ZM210.398 34.7891C210.031 34.9219 209.707 35.0273 209.426 35.1055C209.152 35.1914 208.84 35.2344 208.488 35.2344C207.879 35.2344 207.391 35.0938 207.023 34.8125C206.664 34.5234 206.434 34.1055 206.332 33.5586H206.262C205.754 34.1211 205.207 34.5508 204.621 34.8477C204.043 35.1445 203.344 35.293 202.523 35.293C201.656 35.293 200.941 35.0273 200.379 34.4961C199.824 33.9648 199.547 33.2695 199.547 32.4102C199.547 31.9648 199.609 31.5664 199.734 31.2148C199.859 30.8633 200.047 30.5469 200.297 30.2656C200.492 30.0312 200.75 29.8242 201.07 29.6445C201.391 29.457 201.691 29.3086 201.973 29.1992C202.324 29.0664 203.035 28.8203 204.105 28.4609C205.184 28.1016 205.91 27.8203 206.285 27.6172V26.457C206.285 26.3555 206.262 26.1602 206.215 25.8711C206.176 25.582 206.086 25.3086 205.945 25.0508C205.789 24.7617 205.566 24.5117 205.277 24.3008C204.996 24.082 204.594 23.9727 204.07 23.9727C203.711 23.9727 203.375 24.0352 203.062 24.1602C202.758 24.2773 202.543 24.4023 202.418 24.5352C202.418 24.6914 202.453 24.9219 202.523 25.2266C202.602 25.5312 202.641 25.8125 202.641 26.0703C202.641 26.3438 202.516 26.5938 202.266 26.8203C202.023 27.0469 201.684 27.1602 201.246 27.1602C200.855 27.1602 200.566 27.0234 200.379 26.75C200.199 26.4688 200.109 26.1562 200.109 25.8125C200.109 25.4531 200.234 25.1094 200.484 24.7812C200.742 24.4531 201.074 24.1602 201.48 23.9023C201.832 23.6836 202.258 23.5 202.758 23.3516C203.258 23.1953 203.746 23.1172 204.223 23.1172C204.879 23.1172 205.449 23.1641 205.934 23.2578C206.426 23.3438 206.871 23.5352 207.27 23.832C207.668 24.1211 207.969 24.5156 208.172 25.0156C208.383 25.5078 208.488 26.1445 208.488 26.9258C208.488 28.043 208.477 29.0352 208.453 29.9023C208.43 30.7617 208.418 31.7031 208.418 32.7266C208.418 33.0312 208.469 33.2734 208.57 33.4531C208.68 33.6328 208.844 33.7852 209.062 33.9102C209.18 33.9805 209.363 34.0195 209.613 34.0273C209.871 34.0352 210.133 34.0391 210.398 34.0391V34.7891ZM206.309 28.6016C205.645 28.7969 205.062 28.9883 204.562 29.1758C204.062 29.3633 203.598 29.5977 203.168 29.8789C202.777 30.1445 202.469 30.4609 202.242 30.8281C202.016 31.1875 201.902 31.6172 201.902 32.1172C201.902 32.7656 202.07 33.2422 202.406 33.5469C202.75 33.8516 203.184 34.0039 203.707 34.0039C204.262 34.0039 204.75 33.8711 205.172 33.6055C205.594 33.332 205.949 33.0117 206.238 32.6445L206.309 28.6016ZM216.891 35.3047C215.219 35.3047 213.91 34.75 212.965 33.6406C212.02 32.5312 211.547 31.043 211.547 29.1758C211.547 28.3633 211.672 27.6055 211.922 26.9023C212.18 26.1914 212.551 25.5469 213.035 24.9688C213.496 24.4141 214.074 23.9688 214.77 23.6328C215.465 23.2891 216.223 23.1172 217.043 23.1172C218.176 23.1172 219.098 23.3906 219.809 23.9375C220.52 24.4766 220.875 25.2148 220.875 26.1523C220.875 26.543 220.781 26.8906 220.594 27.1953C220.406 27.4922 220.098 27.6406 219.668 27.6406C219.207 27.6406 218.848 27.5234 218.59 27.2891C218.34 27.0547 218.215 26.793 218.215 26.5039C218.215 26.1523 218.262 25.793 218.355 25.4258C218.449 25.0508 218.504 24.7773 218.52 24.6055C218.379 24.3633 218.168 24.2031 217.887 24.125C217.613 24.0391 217.316 23.9961 216.996 23.9961C216.621 23.9961 216.262 24.0781 215.918 24.2422C215.582 24.3984 215.254 24.6914 214.934 25.1211C214.645 25.5117 214.41 26.0391 214.23 26.7031C214.051 27.3672 213.961 28.1602 213.961 29.082C213.961 30.5352 214.281 31.7227 214.922 32.6445C215.57 33.5586 216.418 34.0156 217.465 34.0156C218.223 34.0156 218.855 33.832 219.363 33.4648C219.879 33.0977 220.355 32.5469 220.793 31.8125L221.543 32.3047C221.027 33.2266 220.348 33.957 219.504 34.4961C218.66 35.0352 217.789 35.3047 216.891 35.3047ZM234.727 35H229.078V34.2266C229.258 34.2109 229.441 34.1953 229.629 34.1797C229.816 34.1641 229.98 34.1328 230.121 34.0859C230.34 34.0156 230.508 33.8945 230.625 33.7227C230.742 33.543 230.801 33.3125 230.801 33.0312V24.4062H227.59C227.59 26.3125 227.457 27.9531 227.191 29.3281C226.926 30.7031 226.582 31.8242 226.16 32.6914C225.746 33.543 225.277 34.1797 224.754 34.6016C224.23 35.0234 223.695 35.2344 223.148 35.2344C222.586 35.2344 222.16 35.0898 221.871 34.8008C221.582 34.5039 221.438 34.1602 221.438 33.7695C221.438 33.4883 221.527 33.2227 221.707 32.9727C221.895 32.7227 222.164 32.5977 222.516 32.5977C222.844 32.5977 223.141 32.6914 223.406 32.8789C223.672 33.0664 223.93 33.3281 224.18 33.6641C224.367 33.4922 224.586 33.1758 224.836 32.7148C225.094 32.2461 225.328 31.668 225.539 30.9805C225.773 30.2383 225.965 29.4688 226.113 28.6719C226.262 27.875 226.336 26.9609 226.336 25.9297C226.336 25.5234 226.285 25.2227 226.184 25.0273C226.082 24.832 225.922 24.6797 225.703 24.5703C225.555 24.4922 225.312 24.4219 224.977 24.3594C224.641 24.2891 224.367 24.2422 224.156 24.2188V23.4453H234.68V24.2188C234.453 24.2344 234.254 24.2539 234.082 24.2773C233.918 24.3008 233.766 24.3281 233.625 24.3594C233.406 24.4219 233.242 24.5469 233.133 24.7344C233.031 24.9141 232.98 25.1406 232.98 25.4141V32.9141C232.98 33.1875 233.027 33.4102 233.121 33.582C233.215 33.7461 233.375 33.875 233.602 33.9688C233.766 34.0469 233.941 34.1055 234.129 34.1445C234.324 34.1836 234.523 34.2109 234.727 34.2266V35ZM246.656 32.2812C246.172 33.2031 245.523 33.9375 244.711 34.4844C243.898 35.0312 242.965 35.3047 241.91 35.3047C240.98 35.3047 240.164 35.1406 239.461 34.8125C238.766 34.4844 238.191 34.0391 237.738 33.4766C237.285 32.9141 236.945 32.2578 236.719 31.5078C236.5 30.7578 236.391 29.9648 236.391 29.1289C236.391 28.3789 236.508 27.6445 236.742 26.9258C236.984 26.1992 237.336 25.5469 237.797 24.9688C238.242 24.4141 238.793 23.9688 239.449 23.6328C240.113 23.2891 240.855 23.1172 241.676 23.1172C242.52 23.1172 243.242 23.25 243.844 23.5156C244.445 23.7812 244.934 24.1445 245.309 24.6055C245.668 25.043 245.934 25.5586 246.105 26.1523C246.285 26.7461 246.375 27.3906 246.375 28.0859V28.8594H238.723C238.723 29.6172 238.793 30.3047 238.934 30.9219C239.082 31.5391 239.312 32.082 239.625 32.5508C239.93 33.0039 240.328 33.3633 240.82 33.6289C241.312 33.8867 241.898 34.0156 242.578 34.0156C243.273 34.0156 243.871 33.8555 244.371 33.5352C244.879 33.207 245.367 32.6211 245.836 31.7773L246.656 32.2812ZM244.066 27.875C244.066 27.4375 244.027 26.9688 243.949 26.4688C243.879 25.9688 243.762 25.5508 243.598 25.2148C243.418 24.8555 243.172 24.5625 242.859 24.3359C242.547 24.1094 242.145 23.9961 241.652 23.9961C240.832 23.9961 240.148 24.3398 239.602 25.0273C239.062 25.707 238.77 26.6562 238.723 27.875H244.066ZM248.461 34.0508C249.234 33.0273 249.906 31.6836 250.477 30.0195C251.055 28.3555 251.344 26.9922 251.344 25.9297C251.344 25.5234 251.293 25.2227 251.191 25.0273C251.09 24.832 250.93 24.6797 250.711 24.5703C250.562 24.4922 250.32 24.4219 249.984 24.3594C249.648 24.2891 249.375 24.2422 249.164 24.2188V23.4453H259.688V24.2188C259.461 24.2344 259.262 24.2539 259.09 24.2773C258.926 24.3008 258.773 24.3281 258.633 24.3594C258.414 24.4219 258.25 24.5469 258.141 24.7344C258.039 24.9141 257.988 25.1406 257.988 25.4141V32.9023C257.988 33.3164 258.066 33.6133 258.223 33.793C258.387 33.9648 258.727 34.0508 259.242 34.0508H259.992V38.3867H259.148C258.984 37.5977 258.707 36.8516 258.316 36.1484C257.926 35.4453 257.504 35.0469 257.051 34.9531H250.242C249.82 35.0234 249.391 35.4141 248.953 36.125C248.523 36.8359 248.23 37.5898 248.074 38.3867H247.23V34.0508H248.461ZM249.797 34.0508H254.848C255.191 34.0508 255.438 33.9922 255.586 33.875C255.734 33.75 255.809 33.5625 255.809 33.3125V24.4062H252.586C252.539 26.3828 252.266 28.1953 251.766 29.8438C251.273 31.4844 250.617 32.8867 249.797 34.0508ZM274.453 35H268.84V34.2266C269.02 34.2109 269.203 34.1953 269.391 34.1797C269.586 34.1641 269.754 34.1328 269.895 34.0859C270.113 34.0156 270.281 33.8945 270.398 33.7227C270.516 33.543 270.574 33.3125 270.574 33.0312V26.9609L265.254 32.7148V32.9141C265.254 33.1797 265.309 33.3984 265.418 33.5703C265.527 33.7422 265.691 33.875 265.91 33.9688C266.082 34.0469 266.262 34.1055 266.449 34.1445C266.645 34.1836 266.848 34.2109 267.059 34.2266V35H261.445V34.2266C261.625 34.2109 261.809 34.1953 261.996 34.1797C262.191 34.1641 262.359 34.1328 262.5 34.0859C262.719 34.0156 262.879 33.8945 262.98 33.7227C263.09 33.543 263.145 33.3125 263.145 33.0312V25.5312C263.145 25.2734 263.09 25.0586 262.98 24.8867C262.871 24.707 262.707 24.5703 262.488 24.4766C262.285 24.3828 262.086 24.3203 261.891 24.2891C261.703 24.2578 261.527 24.2344 261.363 24.2188V23.4453H266.977V24.2188C266.75 24.2344 266.551 24.2539 266.379 24.2773C266.215 24.3008 266.062 24.3281 265.922 24.3594C265.703 24.4219 265.539 24.5469 265.43 24.7344C265.328 24.9141 265.277 25.1406 265.277 25.4141V31.3906L270.598 25.625C270.598 25.2812 270.543 25.0273 270.434 24.8633C270.324 24.6992 270.16 24.5703 269.941 24.4766C269.738 24.3828 269.535 24.3203 269.332 24.2891C269.137 24.2578 268.957 24.2344 268.793 24.2188V23.4453H274.406V24.2188C274.18 24.2344 273.98 24.2539 273.809 24.2773C273.645 24.3008 273.492 24.3281 273.352 24.3594C273.133 24.4219 272.969 24.5469 272.859 24.7344C272.758 24.9141 272.707 25.1406 272.707 25.4141V32.9141C272.707 33.1875 272.754 33.4102 272.848 33.582C272.941 33.7461 273.102 33.875 273.328 33.9688C273.492 34.0469 273.668 34.1055 273.855 34.1445C274.051 34.1836 274.25 34.2109 274.453 34.2266V35ZM286.383 32.2812C285.898 33.2031 285.25 33.9375 284.438 34.4844C283.625 35.0312 282.691 35.3047 281.637 35.3047C280.707 35.3047 279.891 35.1406 279.188 34.8125C278.492 34.4844 277.918 34.0391 277.465 33.4766C277.012 32.9141 276.672 32.2578 276.445 31.5078C276.227 30.7578 276.117 29.9648 276.117 29.1289C276.117 28.3789 276.234 27.6445 276.469 26.9258C276.711 26.1992 277.062 25.5469 277.523 24.9688C277.969 24.4141 278.52 23.9688 279.176 23.6328C279.84 23.2891 280.582 23.1172 281.402 23.1172C282.246 23.1172 282.969 23.25 283.57 23.5156C284.172 23.7812 284.66 24.1445 285.035 24.6055C285.395 25.043 285.66 25.5586 285.832 26.1523C286.012 26.7461 286.102 27.3906 286.102 28.0859V28.8594H278.449C278.449 29.6172 278.52 30.3047 278.66 30.9219C278.809 31.5391 279.039 32.082 279.352 32.5508C279.656 33.0039 280.055 33.3633 280.547 33.6289C281.039 33.8867 281.625 34.0156 282.305 34.0156C283 34.0156 283.598 33.8555 284.098 33.5352C284.605 33.207 285.094 32.6211 285.562 31.7773L286.383 32.2812ZM283.793 27.875C283.793 27.4375 283.754 26.9688 283.676 26.4688C283.605 25.9688 283.488 25.5508 283.324 25.2148C283.145 24.8555 282.898 24.5625 282.586 24.3359C282.273 24.1094 281.871 23.9961 281.379 23.9961C280.559 23.9961 279.875 24.3398 279.328 25.0273C278.789 25.707 278.496 26.6562 278.449 27.875H283.793Z" fill="#4E5665"/>
</g>
</g>
</g>
</g>
<defs>
<filter id="filter0_d_0_1" x="-59" y="-57" width="550" height="369" filterUnits="userSpaceOnUse" color-interpolation-filters="sRGB">
<feFlood flood-opacity="0" result="BackgroundImageFix"/>
<feColorMatrix in="SourceAlpha" type="matrix" values="0 0 0 0 0 0 0 0 0 0 0 0 0 0 0 0 0 0 127 0" result="hardAlpha"/>
<feOffset dy="2"/>
<feGaussianBlur stdDeviation="20"/>
<feColorMatrix type="matrix" values="0 0 0 0 0 0 0 0 0 0 0 0 0 0 0 0 0 0 0.2 0"/>
<feBlend mode="normal" in2="BackgroundImageFix" result="effect1_dropShadow_0_1"/>
<feBlend mode="normal" in="SourceGraphic" in2="effect1_dropShadow_0_1" result="shape"/>
</filter>
<clipPath id="clip0_0_1">
<rect width="1440" height="4684" fill="white" transform="translate(-254 -1713)"/>
</clipPath>
<clipPath id="clip1_0_1">
<rect width="1442" height="3524" fill="white" transform="translate(-254 -866)"/>
</clipPath>
<clipPath id="clip2_0_1">
<rect width="971" height="428" fill="white" transform="translate(-19 -89)"/>
</clipPath>
<clipPath id="clip3_0_1">
<rect width="470" height="289" fill="white" transform="translate(-19 -19)"/>
</clipPath>
<clipPath id="clip4_0_1">
<rect width="432" height="251" fill="white"/>
</clipPath>
</defs>
</svg>
